<svg width="19" height="20" viewBox="0 0 19 20" fill="none" xmlns="http://www.w3.org/2000/svg">
<path d="M9.5 0.671875C4.41602 0.671875 0.296875 4.82812 0.296875 9.875C0.296875 14.959 4.41602 19.0781 9.5 19.0781C14.5469 19.0781 18.7031 14.959 18.7031 9.875C18.7031 4.82812 14.5469 0.671875 9.5 0.671875ZM15.5488 4.93945C16.6621 6.27539 17.3301 7.98242 17.3301 9.83789C17.0703 9.76367 14.4727 9.24414 11.875 9.57812C11.6523 9.05859 11.4668 8.61328 11.1699 8.01953C14.1016 6.83203 15.4004 5.16211 15.5488 4.93945ZM14.6953 4.01172C14.5469 4.23438 13.3594 5.83008 10.5762 6.86914C9.27734 4.49414 7.86719 2.56445 7.64453 2.26758C10.1309 1.67383 12.7656 2.30469 14.6953 4.01172ZM6.12305 2.78711C6.3457 3.08398 7.75586 5.01367 9.05469 7.35156C5.38086 8.31641 2.15234 8.31641 1.78125 8.2793C2.30078 5.86719 3.93359 3.82617 6.12305 2.78711ZM1.63281 9.91211C1.63281 9.83789 1.63281 9.76367 1.63281 9.65234C1.9668 9.68945 5.78906 9.72656 9.68555 8.53906C9.94531 8.98438 10.1309 9.42969 10.3535 9.875C7.49609 10.6914 4.89844 12.9922 3.63672 15.1445C2.375 13.7715 1.63281 11.916 1.63281 9.91211ZM4.63867 16.1094C5.49219 14.4395 7.71875 12.25 10.873 11.1738C11.9863 14.0312 12.4316 16.4434 12.543 17.1484C10.0195 18.2246 6.97656 17.9277 4.63867 16.1094ZM13.8789 16.4062C13.8047 15.9609 13.3594 13.6602 12.3574 10.8027C14.8066 10.4316 16.959 11.0625 17.2559 11.1367C16.8848 13.3262 15.623 15.2188 13.8789 16.4062Z" fill="white"/>
</svg>
