<svg width="17" height="18" viewBox="0 0 17 18" fill="none" xmlns="http://www.w3.org/2000/svg">
<path d="M15.0312 0.5625H1.96875C0.966797 0.5625 0.1875 1.37891 0.1875 2.34375V15.4062C0.1875 16.4082 0.966797 17.1875 1.96875 17.1875H7.05273V11.5469H4.71484V8.875H7.05273V6.87109C7.05273 4.57031 8.42578 3.27148 10.5039 3.27148C11.543 3.27148 12.582 3.45703 12.582 3.45703V5.7207H11.4316C10.2812 5.7207 9.91016 6.42578 9.91016 7.16797V8.875H12.4707L12.0625 11.5469H9.91016V17.1875H15.0312C15.9961 17.1875 16.8125 16.4082 16.8125 15.4062V2.34375C16.8125 1.37891 15.9961 0.5625 15.0312 0.5625Z" fill="white"/>
</svg>
