<svg width="8" height="12" viewBox="0 0 8 12" fill="none" xmlns="http://www.w3.org/2000/svg">
<path d="M5.41504 5.41406C5.80566 5.02344 6.00098 4.55208 6.00098 4C6.00098 3.44792 5.80566 2.97656 5.41504 2.58594C5.02441 2.19531 4.55306 2 4.00098 2C3.44889 2 2.97754 2.19531 2.58691 2.58594C2.19629 2.97656 2.00098 3.44792 2.00098 4C2.00098 4.55208 2.19629 5.02344 2.58691 5.41406C2.97754 5.80469 3.44889 6 4.00098 6C4.55306 6 5.02441 5.80469 5.41504 5.41406ZM8.00098 4C8.00098 4.56771 7.91504 5.03385 7.74316 5.39844L4.89941 11.4453C4.81608 11.6172 4.69108 11.7526 4.52441 11.8516C4.36296 11.9505 4.18848 12 4.00098 12C3.81348 12 3.63639 11.9505 3.46973 11.8516C3.30827 11.7526 3.18848 11.6172 3.11035 11.4453L0.258789 5.39844C0.0869141 5.03385 0.000976562 4.56771 0.000976562 4C0.000976562 2.89583 0.391602 1.95312 1.17285 1.17187C1.9541 0.390624 2.89681 -5.96046e-07 4.00098 -5.96046e-07C5.10514 -5.96046e-07 6.04785 0.390624 6.8291 1.17187C7.61035 1.95312 8.00098 2.89583 8.00098 4Z" fill="white"/>
</svg>
