<svg width="19" height="16" viewBox="0 0 19 16" fill="none" xmlns="http://www.w3.org/2000/svg">
<path d="M17.0332 4.01562C17.7754 3.45898 18.4434 2.79102 18.9629 2.01172C18.2949 2.30859 17.5156 2.53125 16.7363 2.60547C17.5527 2.12305 18.1465 1.38086 18.4434 0.453125C17.7012 0.898438 16.8477 1.23242 15.9941 1.41797C15.252 0.638672 14.25 0.193359 13.1367 0.193359C10.9844 0.193359 9.24023 1.9375 9.24023 4.08984C9.24023 4.38672 9.27734 4.68359 9.35156 4.98047C6.12305 4.79492 3.22852 3.23633 1.29883 0.898438C0.964844 1.45508 0.779297 2.12305 0.779297 2.86523C0.779297 4.20117 1.44727 5.38867 2.52344 6.09375C1.89258 6.05664 1.26172 5.9082 0.742188 5.61133V5.64844C0.742188 7.54102 2.07812 9.09961 3.85938 9.4707C3.5625 9.54492 3.19141 9.61914 2.85742 9.61914C2.59766 9.61914 2.375 9.58203 2.11523 9.54492C2.59766 11.1035 4.04492 12.2168 5.75195 12.2539C4.41602 13.293 2.74609 13.9238 0.927734 13.9238C0.59375 13.9238 0.296875 13.8867 0 13.8496C1.70703 14.9629 3.74805 15.5938 5.97461 15.5938C13.1367 15.5938 17.0332 9.69336 17.0332 4.53516C17.0332 4.34961 17.0332 4.20117 17.0332 4.01562Z" fill="white"/>
</svg>
