<svg width="35" height="35" viewBox="0 0 35 35" fill="none" xmlns="http://www.w3.org/2000/svg">
<path fill-rule="evenodd" clip-rule="evenodd" d="M3.49967 7C3.19026 7 2.89351 7.12292 2.67472 7.34171C2.45592 7.5605 2.33301 7.85725 2.33301 8.16667C2.33301 8.47609 2.45592 8.77283 2.67472 8.99162C2.89351 9.21042 3.19026 9.33333 3.49967 9.33333H31.4997C31.8091 9.33333 32.1058 9.21042 32.3246 8.99162C32.5434 8.77283 32.6663 8.47609 32.6663 8.16667C32.6663 7.85725 32.5434 7.5605 32.3246 7.34171C32.1058 7.12292 31.8091 7 31.4997 7H3.49967ZM2.33301 17.5C2.33301 17.1906 2.45592 16.8938 2.67472 16.675C2.89351 16.4562 3.19026 16.3333 3.49967 16.3333H31.4997C31.8091 16.3333 32.1058 16.4562 32.3246 16.675C32.5434 16.8938 32.6663 17.1906 32.6663 17.5C32.6663 17.8094 32.5434 18.1062 32.3246 18.325C32.1058 18.5437 31.8091 18.6667 31.4997 18.6667H3.49967C3.19026 18.6667 2.89351 18.5437 2.67472 18.325C2.45592 18.1062 2.33301 17.8094 2.33301 17.5ZM2.33301 26.8333C2.33301 26.5239 2.45592 26.2272 2.67472 26.0084C2.89351 25.7896 3.19026 25.6667 3.49967 25.6667H31.4997C31.8091 25.6667 32.1058 25.7896 32.3246 26.0084C32.5434 26.2272 32.6663 26.5239 32.6663 26.8333C32.6663 27.1428 32.5434 27.4395 32.3246 27.6583C32.1058 27.8771 31.8091 28 31.4997 28H3.49967C3.19026 28 2.89351 27.8771 2.67472 27.6583C2.45592 27.4395 2.33301 27.1428 2.33301 26.8333Z" fill="black"/>
</svg>
